<svg width="472" height="324" viewBox="0 0 472 324" fill="none" xmlns="http://www.w3.org/2000/svg">
<path d="M162.894 17.0418V96.4307C162.894 125.059 186.013 144.469 215.82 144.469C222.931 144.469 229.641 143.376 235.75 141.334C239.298 140.144 242.652 138.633 245.75 136.816C256.543 130.514 264.335 120.6 267.363 108.231L289.908 132.122C294.03 136.436 295.991 138.585 295.991 140.943V141.34H328.536V136.822H328.14C318.14 136.436 312.454 132.904 305.005 125.659L268.746 88.9763L259.721 79.8391L254.624 74.689C256.211 74.8659 257.952 74.882 259.721 74.882H260.31C263.102 74.882 265.927 74.6783 268.746 74.2818C288.102 71.5272 306.768 59.2014 306.768 36.27C306.768 19.807 297.534 9.73739 285.385 4.50696C278.14 1.38263 269.855 0 261.881 0H144.657V4.49624H150.343C158.574 4.49624 162.888 9.01392 162.888 17.0418H162.894ZM230.712 22.1382C230.712 12.3419 236.205 8.22078 245.809 8.22078H257.175C262.159 8.22078 266.516 8.86386 270.284 10.0268C284.008 14.2068 289.914 25.2465 289.914 37.2293C289.914 50.2571 283.188 62.0363 268.751 66.3932C266.023 67.24 263.011 67.8027 259.726 68.0653C258.397 68.1617 257.031 68.2153 255.616 68.2153C246.012 68.2153 237.974 66.6398 230.712 63.5047V22.1382ZM230.712 69.3782L259.383 99.7587C257.518 114.057 248.054 126.345 231.891 130.552C231.109 128.799 230.712 126.704 230.712 124.276V69.3782ZM178.767 17.0418C178.767 9.01392 183.081 4.49624 191.313 4.49624H202.283C210.514 4.49624 214.828 9.01392 214.828 17.0418V124.282C214.828 127.283 214.228 129.801 213.022 131.763C190.83 129.228 178.767 112.845 178.767 94.48V17.0418Z" fill="black"/>
<path d="M9.18541 185.08V222.341C9.18541 236.291 15.4233 246.865 32.1489 246.865C48.8745 246.865 53.8102 234.817 53.8102 222.084V185.085C53.8102 179.801 55.0213 178.242 63.0814 178.242V176.163H40.7234V178.242C48.7834 178.242 49.9946 179.801 49.9946 185.085V222.084C49.9946 235.862 44.0996 242.1 34.4855 242.1C24.3462 242.1 18.9764 236.382 18.9764 222.341V185.08C18.9764 179.796 20.1018 178.237 28.2475 178.237V176.157H0V178.237C8.06001 178.237 9.18541 179.796 9.18541 185.08Z" fill="black"/>
<path d="M109.791 243.397C101.388 243.397 100.171 241.838 100.171 236.554V189.758L135.525 246.345H140.375V185.08C140.375 179.796 141.586 178.237 149.646 178.237V176.157H127.551V178.237C135.611 178.237 136.736 179.796 136.736 185.08V230.316L103.29 176.157H87.4329V178.237C91.1574 178.237 93.4993 179.019 96.4468 183.783L96.5325 183.955V236.554C96.5325 241.838 95.4071 243.397 87.3471 243.397V245.477H109.791V243.397Z" fill="black"/>
<path d="M204.587 178.58C214.464 178.58 220.444 186.12 222.872 200.069H224.866L223.74 175.546H221.661L221.227 179.533C221.055 181.179 220.016 181.527 218.713 180.316C214.121 176.415 209.271 174.769 203.113 174.769C184.828 174.769 173.826 190.278 173.826 211.248C173.826 232.218 183.617 246.865 203.547 246.865C213.858 246.865 222.175 242.272 227.116 235.251V218.612C227.116 213.065 227.808 211.768 232.492 211.768V209.689H201.816V211.768C215.943 211.768 218.022 213.328 218.022 218.612V235.68C215.857 239.062 211.35 242.701 204.85 242.701C191.42 242.701 184.399 228.574 184.399 210.118C184.399 191.661 191.506 178.574 204.592 178.574L204.587 178.58Z" fill="black"/>
<path d="M279.11 180.053H294.19C300.343 180.053 302.336 181.961 303.376 193.917L305.718 193.746L304.507 178.756L304.249 176.157H256.071V178.237C264.131 178.237 265.257 179.796 265.257 185.08V236.554C265.257 241.838 264.131 243.397 256.071 243.397V245.477H285.016V243.397C276.264 243.397 275.048 241.838 275.048 236.554V213.07H286.832C292.116 213.07 293.676 214.281 293.676 223.21H295.755V199.378H293.676C293.676 208.301 292.116 209.603 286.832 209.603H275.048V184.126C275.048 181.527 276.436 180.053 279.121 180.053H279.11Z" fill="black"/>
<path d="M358.654 243.397C350.594 243.397 349.383 241.838 349.383 236.554V212.465C350.857 212.551 352.416 212.636 354.062 212.636H355.364L366.714 235.6C370.787 244.351 372.261 245.477 383.783 245.477H388.027V243.397C381.704 243.397 380.316 241.318 377.631 236.034L370.267 221.65C367.234 215.064 364.892 213.156 361.43 212.116C371.57 210.557 379.63 205.444 379.63 193.831C379.63 182.824 372.695 176.152 357.186 176.152H330.498V178.231C338.558 178.231 339.683 179.791 339.683 185.075V236.548C339.683 241.832 338.558 243.392 330.498 243.392V245.471H358.66V243.392L358.654 243.397ZM349.383 182.915C349.383 181.875 349.817 181.007 350.943 180.573C352.765 179.967 354.581 179.705 356.404 179.705C364.807 179.705 369.662 184.646 369.662 194.089C369.662 205.005 363.161 209.34 354.324 209.34C352.593 209.34 350.943 209.255 349.383 209.078V182.91V182.915Z" fill="black"/>
<path d="M413.852 185.08V222.341C413.852 236.291 420.09 246.865 436.816 246.865C453.542 246.865 458.477 234.817 458.477 222.084V185.085C458.477 179.801 459.688 178.242 467.748 178.242V176.163H445.39V178.242C453.45 178.242 454.662 179.801 454.662 185.085V222.084C454.662 235.862 448.767 242.1 439.153 242.1C429.013 242.1 423.643 236.382 423.643 222.341V185.08C423.643 179.796 424.769 178.237 432.915 178.237V176.157H404.667V178.237C412.727 178.237 413.852 179.796 413.852 185.08Z" fill="black"/>
<path d="M455.792 154.319H447.647L441.06 170.177H443.745L455.792 154.319Z" fill="black"/>
<path d="M47.4007 312.373L40.0374 297.99C37.0042 291.404 34.6623 289.496 31.2003 288.456C41.3397 286.897 49.3997 281.784 49.3997 270.171C49.3997 259.163 42.4651 252.491 26.956 252.491H0.257202V254.571C8.31721 254.571 9.44261 256.13 9.44261 261.414V312.888C9.44261 318.172 8.31721 319.731 0.257202 319.731V321.811H28.4244V319.731C20.3644 319.731 19.1532 318.172 19.1532 312.888V288.799C20.6269 288.885 22.1864 288.97 23.8317 288.97H25.1339L36.4844 311.934C40.5572 320.685 42.031 321.811 53.5529 321.811H57.7973V319.731C51.4736 319.731 50.0856 317.652 47.4007 312.368V312.373ZM24.0889 285.685C22.3579 285.685 20.7073 285.6 19.1478 285.428V259.26C19.1478 258.22 19.5819 257.352 20.7073 256.918C22.5294 256.312 24.3461 256.05 26.1682 256.05C34.5712 256.05 39.4265 260.991 39.4265 270.434C39.4265 281.35 32.926 285.685 24.0889 285.685Z" fill="black"/>
<path d="M93.8423 317.92H81.5379C78.1564 317.92 77.4651 317.052 77.4651 312.979V287.416H88.21C93.3225 287.416 94.7962 288.719 94.7962 297.556H96.7898V274.072H94.7962C94.7962 282.995 93.3225 284.297 88.21 284.297H77.4651V260.466C77.4651 257.867 78.8531 256.393 81.5379 256.393H93.9281C100.08 256.393 102.074 258.386 103.376 270.257L105.804 269.999L104.158 255.096L103.896 252.497H58.4887V254.576C66.5487 254.576 67.6741 256.136 67.6741 261.42V312.893C67.6741 318.177 66.5487 319.737 58.4887 319.737V321.816H103.81L104.501 319.303L108.746 302.84L106.318 302.148C102.851 315.407 100.337 317.92 93.8423 317.92Z" fill="black"/>
<path d="M146.356 254.576C154.416 254.576 154.067 255.787 151.817 260.643L140.032 286.291H139.769L127.202 260.557C124.86 255.793 124.603 254.576 133.789 254.576V252.497H107.186V254.576C111.865 254.576 114.121 255.444 116.634 260.471L132.058 291.318V312.893C132.058 318.177 130.932 319.737 122.872 319.737V321.816H151.12V319.737C142.974 319.737 141.849 318.177 141.849 312.893V291.055L155.798 260.637C158.14 255.525 160.305 254.571 165.241 254.571V252.491H146.35V254.571L146.356 254.576Z" fill="black"/>
<path d="M219.491 314.104L196.961 280.568L214.549 259.335C218.103 255.091 221.136 254.571 226.768 254.571V252.491H202.074V254.571C207.62 254.571 209.094 255.262 209.094 257.084C209.094 258.21 208.14 259.855 206.061 262.454L188.381 285.069L207.792 313.493C211.259 318.692 210.562 319.731 202.593 319.731V321.811H229.801V319.646C225.38 319.646 222.781 318.954 219.491 314.099V314.104Z" fill="black"/>
<path d="M185.959 312.893V261.42C185.959 256.136 187.084 254.576 195.23 254.576V252.497H166.983V254.576C175.043 254.576 176.168 256.136 176.168 261.42V312.893C176.168 318.177 175.043 319.737 166.983 319.737V321.816H195.23V319.737C187.084 319.737 185.959 318.177 185.959 312.893Z" fill="black"/>
<path d="M270.787 252.497H242.54V254.576C250.6 254.576 251.811 256.136 251.811 261.42V306.307C251.811 315.321 250.337 319.737 245.744 319.737C242.54 319.737 241.066 317.309 241.066 314.019C241.066 312.459 241.329 311.334 241.329 310.117C241.329 307.518 239.507 305.787 236.473 305.787C233.788 305.787 231.532 307.695 231.532 311.334C231.532 317.229 236.296 323.204 245.916 323.204C255.535 323.204 261.516 317.829 261.516 303.622V261.42C261.516 256.136 262.727 254.576 270.787 254.576V252.497Z" fill="black"/>
<path d="M318.017 313.327L297.567 251.457H292.802L272.524 313.327C270.793 318.612 268.885 319.742 263.424 319.742V321.822H283.006V319.742C274.774 319.742 274.689 318.354 276.334 313.327L280.578 299.898H303.799L307.958 313.242C309.517 318.354 309.431 319.742 301.023 319.742V321.822H327.368V319.742C321.736 319.742 319.828 318.617 318.011 313.327H318.017ZM281.709 296.516L292.106 263.933H292.454L302.679 296.516H281.709Z" fill="black"/>
<path d="M356.403 254.576C364.463 254.576 364.549 255.964 362.904 260.991L347.829 308.392H347.395L332.057 260.991C330.498 255.964 330.498 254.576 338.558 254.576V252.497H313.258V254.576C318.199 254.576 320.016 255.702 321.752 260.991L342.55 323.209H346.88L366.811 260.991C368.542 255.707 370.364 254.576 375.391 254.576V252.497H356.414V254.576H356.403Z" fill="black"/>
<path d="M376.854 254.576C384.914 254.576 386.039 256.136 386.039 261.42V312.893C386.039 318.177 384.914 319.737 376.854 319.737V321.816H405.101V319.737C396.955 319.737 395.83 318.177 395.83 312.893V261.42C395.83 256.136 396.955 254.576 405.101 254.576V252.497H376.854V254.576Z" fill="black"/>
<path d="M393.488 246.516H396.173L408.22 230.659H400.074L393.488 246.516Z" fill="black"/>
<path d="M460.819 314.104L438.29 280.568L455.878 259.335C459.431 255.091 462.464 254.571 468.097 254.571V252.491H443.402V254.571C448.949 254.571 450.423 255.262 450.423 257.084C450.423 258.21 449.469 259.855 447.389 262.454L429.71 285.069L449.12 313.493C452.588 318.692 451.891 319.731 443.922 319.731V321.811H471.13V319.646C466.709 319.646 464.11 318.954 460.819 314.099V314.104Z" fill="black"/>
<path d="M427.282 312.893V261.42C427.282 256.136 428.408 254.576 436.553 254.576V252.497H408.306V254.576C416.366 254.576 417.491 256.136 417.491 261.42V312.893C417.491 318.177 416.366 319.737 408.306 319.737V321.816H436.553V319.737C428.408 319.737 427.282 318.177 427.282 312.893Z" fill="black"/>
</svg>
